<svg width="20" height="20" viewBox="0 0 20 20" fill="none" xmlns="http://www.w3.org/2000/svg">
<g id="Frame" clip-path="url(#clip0_1_182)">
<path id="Vector" d="M16.125 8.36659C15.5583 5.49159 13.0333 3.33325 10 3.33325C7.59167 3.33325 5.5 4.69992 4.45833 6.69992C1.95 6.96659 0 9.09159 0 11.6666C0 14.4249 2.24167 16.6666 5 16.6666H15.8333C18.1333 16.6666 20 14.7999 20 12.4999C20 10.2999 18.2917 8.51659 16.125 8.36659ZM15.8333 14.9999H5C3.15833 14.9999 1.66667 13.5083 1.66667 11.6666C1.66667 9.95825 2.94167 8.53325 4.63333 8.35825L5.525 8.26659L5.94167 7.47492C6.73333 5.94992 8.28333 4.99992 10 4.99992C12.1833 4.99992 14.0667 6.54992 14.4917 8.69159L14.7417 9.94159L16.0167 10.0333C17.3167 10.1166 18.3333 11.2083 18.3333 12.4999C18.3333 13.8749 17.2083 14.9999 15.8333 14.9999ZM11.2083 8.33325H8.79167V10.8333H6.66667L10 14.1666L13.3333 10.8333H11.2083V8.33325Z" fill="black"/>
</g>
<defs>
<clipPath id="clip0_1_182">
<rect width="20" height="20" fill="white"/>
</clipPath>
</defs>
</svg>
