<svg width="20" height="20" viewBox="0 0 20 20" fill="none" xmlns="http://www.w3.org/2000/svg">
<g id="Frame" clip-path="url(#clip0_1_147)">
<path id="Vector" d="M10.0001 1.66663C5.40008 1.66663 1.66675 5.39996 1.66675 9.99996C1.66675 14.6 5.40008 18.3333 10.0001 18.3333C14.6001 18.3333 18.3334 14.6 18.3334 9.99996C18.3334 5.39996 14.6001 1.66663 10.0001 1.66663ZM10.7584 15.125C10.5001 15.3833 10.0501 15.2 10.0501 14.8333V14.1666C10.0334 14.1666 10.0167 14.1666 10.0001 14.1666C8.93341 14.1666 7.86675 13.7583 7.05008 12.95C5.85841 11.7583 5.54175 10.0166 6.10008 8.53329C6.25841 8.10829 6.81675 7.99996 7.13341 8.32496C7.31675 8.50829 7.35841 8.77496 7.27508 9.00829C6.89175 10.0416 7.10841 11.2416 7.94175 12.075C8.52508 12.6583 9.29175 12.9333 10.0584 12.9166V12.1333C10.0584 11.7583 10.5084 11.575 10.7667 11.8416L12.1167 13.1916C12.2834 13.3583 12.2834 13.6166 12.1167 13.7833L10.7584 15.125ZM12.8667 11.6833C12.6834 11.5 12.6417 11.2333 12.7251 11C13.1084 9.96663 12.8917 8.76663 12.0584 7.93329C11.4751 7.34996 10.7084 7.06663 9.95008 7.08329V7.86663C9.95008 8.24163 9.50008 8.42496 9.24175 8.15829L7.88341 6.81663C7.71675 6.64996 7.71675 6.39163 7.88341 6.22496L9.23341 4.87496C9.49175 4.61663 9.94175 4.79996 9.94175 5.16663V5.84163C11.0251 5.82496 12.1167 6.21663 12.9417 7.04996C14.1334 8.24163 14.4501 9.98329 13.8917 11.4666C13.7334 11.9 13.1834 12.0083 12.8667 11.6833Z" fill="black"/>
</g>
<defs>
<clipPath id="clip0_1_147">
<rect width="20" height="20" fill="white"/>
</clipPath>
</defs>
</svg>
