<svg width="20" height="20" viewBox="0 0 20 20" fill="none" xmlns="http://www.w3.org/2000/svg">
<g id="Frame" clip-path="url(#clip0_1_153)">
<g id="Group">
<path id="Vector" d="M15.8333 2.50004H12.35C12 1.53337 11.0833 0.833374 10 0.833374C8.91667 0.833374 8 1.53337 7.65 2.50004H4.16667C4.05 2.50004 3.94167 2.50837 3.83333 2.53337C3.50833 2.60004 3.21667 2.76671 2.99167 2.99171C2.84167 3.14171 2.71667 3.32504 2.63333 3.52504C2.55 3.71671 2.5 3.93337 2.5 4.16671V15.8334C2.5 16.0584 2.55 16.2834 2.63333 16.4834C2.71667 16.6834 2.84167 16.8584 2.99167 17.0167C3.21667 17.2417 3.50833 17.4084 3.83333 17.475C3.94167 17.4917 4.05 17.5 4.16667 17.5H15.8333C16.75 17.5 17.5 16.75 17.5 15.8334V4.16671C17.5 3.25004 16.75 2.50004 15.8333 2.50004ZM8.58333 12.4C8.25833 12.725 7.725 12.725 7.4 12.4L5.59167 10.5917C5.26667 10.2667 5.26667 9.74171 5.59167 9.41671L7.4 7.60837C7.725 7.28337 8.25833 7.28337 8.58333 7.60837C8.90833 7.93337 8.90833 8.45837 8.58333 8.78337L7.35833 10L8.575 11.2167C8.9 11.5417 8.90833 12.075 8.58333 12.4ZM10 3.54171C9.65833 3.54171 9.375 3.25837 9.375 2.91671C9.375 2.57504 9.65833 2.29171 10 2.29171C10.3417 2.29171 10.625 2.57504 10.625 2.91671C10.625 3.25837 10.3417 3.54171 10 3.54171ZM11.4167 12.4C11.0917 12.075 11.0917 11.55 11.4167 11.225L12.6417 10L11.4167 8.77504C11.0917 8.45004 11.0917 7.92504 11.4167 7.60004C11.7417 7.27504 12.275 7.27504 12.6 7.60004L14.4083 9.40837C14.7333 9.73337 14.7333 10.2584 14.4083 10.5834L12.6 12.3917C12.275 12.725 11.7417 12.725 11.4167 12.4Z" fill="black"/>
</g>
</g>
<defs>
<clipPath id="clip0_1_153">
<rect width="20" height="20" fill="white"/>
</clipPath>
</defs>
</svg>
